<svg width="512" height="512" viewBox="0 0 512 512" fill="none" xmlns="http://www.w3.org/2000/svg">
<path d="M120.81 182.061H217.378V189.737H129.662V247.504H212.148V255.179H129.662V318.602H218.384V326.277H120.81V182.061ZM226.029 182.061H236.29L281.757 245.484L328.23 182.061L391.441 101.5L287.591 252.149L341.106 326.277H330.443L281.757 258.815L232.869 326.277H222.408L276.325 252.149L226.029 182.061ZM344.928 189.737V182.061H454.976V189.737H404.277V326.277H395.425V189.737H344.928ZM0 182.061H11.0651L163.646 410.384L100.592 326.277L9.25442 192.968L8.85206 326.277H0V182.061ZM454.084 316.285C452.275 316.285 450.919 314.884 450.919 313.073C450.919 311.262 452.275 309.861 454.084 309.861C455.914 309.861 457.249 311.262 457.249 313.073C457.249 314.884 455.914 316.285 454.084 316.285ZM462.782 307.835H467.519C467.583 310.4 469.456 312.125 472.212 312.125C475.291 312.125 477.035 310.271 477.035 306.8V284.81H481.858V306.821C481.858 313.073 478.241 316.674 472.255 316.674C466.636 316.674 462.782 313.181 462.782 307.835ZM488.166 307.554H492.946C493.355 310.508 496.24 312.383 500.395 312.383C504.271 312.383 507.113 310.378 507.113 307.619C507.113 305.248 505.304 303.825 501.192 302.855L497.187 301.885C491.568 300.569 489.006 297.853 489.006 293.283C489.006 287.742 493.527 284.056 500.309 284.056C506.617 284.056 511.225 287.742 511.505 292.981H506.811C506.359 290.114 503.862 288.324 500.245 288.324C496.434 288.324 493.893 290.157 493.893 292.959C493.893 295.18 495.529 296.452 499.577 297.4L503 298.241C509.373 299.729 512 302.316 512 306.994C512 312.944 507.393 316.674 500.029 316.674C493.14 316.674 488.511 313.116 488.166 307.554Z" fill="white"/>
</svg>
