<svg width="61" height="37" viewBox="0 0 61 37" fill="none" xmlns="http://www.w3.org/2000/svg">
<g clip-path="url(#clip0_1249_54)">
<path d="M6.38796 29.1321C5.06796 29.1321 4.15596 28.8681 3.65196 28.3401C3.14796 27.8361 2.88396 27.1761 2.85996 26.3601C2.85996 25.6641 2.99196 24.8361 3.25596 23.8761C3.54396 22.8921 3.83196 21.9561 4.11996 21.0681C4.69596 19.3641 5.29596 17.6841 5.91996 16.0281C6.54396 14.3721 7.16796 12.7761 7.79196 11.2401C8.43996 9.70408 9.05196 8.24008 9.62796 6.84808C10.228 5.45608 10.78 4.17208 11.284 2.99608C9.65196 3.02008 8.23596 3.06808 7.03596 3.14008C5.85996 3.21208 4.77996 3.30808 3.79596 3.42808C2.81196 3.52408 1.79196 3.66808 0.735962 3.86008C0.855962 2.85208 1.32396 2.08408 2.13996 1.55608C2.97996 1.00408 4.09596 0.620078 5.48796 0.404078C6.87996 0.188078 8.47596 0.0800781 10.276 0.0800781C11.212 0.0800781 12.088 0.104078 12.904 0.152077C13.744 0.176078 14.536 0.224078 15.28 0.296077C16.048 0.368078 16.792 0.440078 17.512 0.512079C19.024 0.656078 20.224 0.752078 21.112 0.800077C22.024 0.848078 22.672 0.872079 23.056 0.872079C22.336 1.54408 21.424 2.03608 20.32 2.34808C19.24 2.63608 18.1 2.81608 16.9 2.88808C15.7 2.96008 14.56 2.99608 13.48 2.99608C12.328 5.82808 11.272 8.76808 10.312 11.8161C9.35196 14.8641 8.46396 17.8761 7.64796 20.8521C7.33596 22.0041 7.07196 22.9881 6.85596 23.8041C6.66396 24.5961 6.51996 25.3281 6.42396 26.0001C6.32796 26.6481 6.27996 27.3441 6.27996 28.0881C6.27996 28.2081 6.27996 28.3401 6.27996 28.4841C6.30396 28.6521 6.33996 28.8681 6.38796 29.1321ZM16.4191 27.0801C15.3631 27.0801 14.5711 26.7681 14.0431 26.1441C13.5151 25.5201 13.2511 24.7641 13.2511 23.8761C13.2511 23.3241 13.3471 22.6281 13.5391 21.7881C13.7311 20.9481 13.9951 20.0721 14.3311 19.1601C14.6911 18.2241 15.0991 17.3481 15.5551 16.5321C16.0111 15.7161 16.5031 15.0561 17.0311 14.5521C17.5591 14.0241 18.0871 13.7601 18.6151 13.7601C18.9031 13.7601 19.1551 13.8561 19.3711 14.0481C19.5871 14.2161 19.6951 14.4681 19.6951 14.8041C19.6951 15.1161 19.5031 15.5841 19.1191 16.2081C18.7591 16.8321 18.3271 17.5521 17.8231 18.3681C17.3431 19.1841 16.9111 20.0361 16.5271 20.9241C16.1671 21.7881 15.9871 22.6161 15.9871 23.4081C15.9871 24.1761 16.1191 24.6921 16.3831 24.9561C16.6711 25.1961 17.0791 25.3161 17.6071 25.3161C18.4231 25.3161 19.3111 24.9081 20.2711 24.0921C21.2311 23.2761 22.2271 21.8481 23.2591 19.8081L23.7991 20.3841C22.9591 22.4961 21.8911 24.1401 20.5951 25.3161C19.2991 26.4921 17.9071 27.0801 16.4191 27.0801ZM20.6671 10.8441C20.2111 10.8441 19.7911 10.7361 19.4071 10.5201C19.0471 10.2801 18.8671 9.92008 18.8671 9.44008C18.8671 8.86408 19.1791 8.37208 19.8031 7.96408C20.4271 7.55608 21.0751 7.35208 21.7471 7.35208C22.1791 7.35208 22.5391 7.44808 22.8271 7.64008C23.1391 7.83208 23.2951 8.18008 23.2951 8.68408C23.2951 9.18808 23.0191 9.68008 22.4671 10.1601C21.9151 10.6161 21.3151 10.8441 20.6671 10.8441ZM25.4241 27.0801C24.2961 27.0801 23.5041 26.7081 23.0481 25.9641C22.6161 25.1961 22.4001 24.2961 22.4001 23.2641C22.4001 22.0881 22.6161 20.7081 23.0481 19.1241C23.4801 17.5401 24.0441 15.8841 24.7401 14.1561C25.4601 12.4041 26.2401 10.7001 27.0801 9.04408C27.9441 7.36408 28.8081 5.85208 29.6721 4.50808C30.5361 3.16408 31.3281 2.09608 32.0481 1.30408C32.7921 0.488078 33.3921 0.0800781 33.8481 0.0800781C34.1601 0.0800781 34.4241 0.248078 34.6401 0.584078C34.8561 0.896078 35.0241 1.28008 35.1441 1.73608C35.2881 2.16808 35.3601 2.57608 35.3601 2.96008C35.3601 3.60808 35.1921 4.46008 34.8561 5.51608C34.5441 6.54808 34.0881 7.68808 33.4881 8.93608C32.9121 10.1841 32.2161 11.4681 31.4001 12.7881C30.6081 14.0841 29.7201 15.3201 28.7361 16.4961C27.7761 17.6721 26.7441 18.6921 25.6401 19.5561C25.5441 20.1561 25.4481 20.7561 25.3521 21.3561C25.2801 21.9321 25.2441 22.4601 25.2441 22.9401C25.2441 23.8041 25.3881 24.4401 25.6761 24.8481C25.9641 25.2321 26.3361 25.4241 26.7921 25.4241C27.3921 25.4241 28.0041 25.1481 28.6281 24.5961C29.2761 24.0201 29.8881 23.3001 30.4641 22.4361C31.0641 21.5481 31.5801 20.6361 32.0121 19.7001L32.8761 20.1681C31.8441 22.3041 30.6921 23.9961 29.4201 25.2441C28.1481 26.4681 26.8161 27.0801 25.4241 27.0801ZM26.2881 17.3241C27.1041 16.4361 27.8721 15.4761 28.5921 14.4441C29.3361 13.3881 30.0081 12.3201 30.6081 11.2401C31.2321 10.1601 31.7721 9.11608 32.2281 8.10808C32.6841 7.10008 33.0321 6.20008 33.2721 5.40808C33.5361 4.59208 33.6801 3.94408 33.7041 3.46408C33.7041 3.44008 33.7041 3.42808 33.7041 3.42808C33.7041 3.40408 33.7041 3.38008 33.7041 3.35608C33.5121 3.35608 33.2001 3.63208 32.7681 4.18408C32.3601 4.71208 31.8681 5.44408 31.2921 6.38008C30.7161 7.31608 30.1161 8.38408 29.4921 9.58408C28.8921 10.7841 28.3041 12.0561 27.7281 13.4001C27.1761 14.7201 26.6961 16.0281 26.2881 17.3241ZM33.5283 27.1521C32.4483 27.1521 31.7043 26.7921 31.2963 26.0721C30.9123 25.3761 30.7203 24.6081 30.7203 23.7681C30.7203 23.0001 30.8403 22.2201 31.0803 21.4281C31.3203 20.6121 31.6443 19.8561 32.0523 19.1601C32.4843 18.4641 32.9523 17.9121 33.4563 17.5041C33.9843 17.0721 34.5123 16.8561 35.0403 16.8561C35.2083 16.8561 35.4003 16.8921 35.6163 16.9641C35.8563 17.0121 36.0243 17.0961 36.1203 17.2161C35.8323 17.5761 35.5323 18.0201 35.2203 18.5481C34.9323 19.0761 34.6563 19.6401 34.3923 20.2401C34.1523 20.8161 33.9603 21.4041 33.8163 22.0041C33.6723 22.6041 33.6003 23.1561 33.6003 23.6601C33.6003 24.1401 33.6843 24.5361 33.8523 24.8481C34.0443 25.1601 34.3683 25.3161 34.8243 25.3161C35.2803 25.3161 35.8203 25.0641 36.4443 24.5601C37.0923 24.0321 37.7043 23.4321 38.2803 22.7601C37.5123 22.0641 36.9603 21.3081 36.6243 20.4921C36.2883 19.6521 36.1203 18.6441 36.1203 17.4681C36.1203 16.9641 36.2403 16.3881 36.4803 15.7401C36.7443 15.0921 37.1523 14.5281 37.7043 14.0481C38.2803 13.5681 39.0483 13.3281 40.0083 13.3281C41.0403 13.3281 41.7603 13.6161 42.1683 14.1921C42.6003 14.7681 42.8163 15.4521 42.8163 16.2441C42.8163 17.1321 42.5763 18.1281 42.0963 19.2321C41.6403 20.3361 41.0883 21.3801 40.4403 22.3641C40.7283 22.5081 41.0643 22.5801 41.4483 22.5801C41.8083 22.5801 42.2403 22.4961 42.7443 22.3281C43.2483 22.1601 43.7403 21.8841 44.2203 21.5001C44.7003 21.0921 45.0843 20.5521 45.3723 19.8801L46.0203 20.3481C45.4923 21.5721 44.7843 22.4721 43.8963 23.0481C43.0323 23.6001 42.1803 23.8761 41.3403 23.8761C41.0283 23.8761 40.7163 23.8521 40.4043 23.8041C40.0923 23.7321 39.8043 23.6481 39.5403 23.5521C38.7243 24.5121 37.7883 25.3521 36.7323 26.0721C35.6763 26.7921 34.6083 27.1521 33.5283 27.1521ZM39.2163 21.6081C39.7923 20.7681 40.2843 19.8681 40.6923 18.9081C41.1003 17.9481 41.3043 17.0601 41.3043 16.2441C41.3043 15.6921 41.2203 15.2961 41.0523 15.0561C40.8843 14.7921 40.6323 14.6601 40.2963 14.6601C39.8403 14.6601 39.3723 14.9841 38.8923 15.6321C38.4123 16.2801 38.1723 17.0961 38.1723 18.0801C38.1723 18.5841 38.2563 19.1961 38.4243 19.9161C38.6163 20.6361 38.8803 21.2001 39.2163 21.6081ZM46.3469 36.0801C45.7469 36.0801 45.1829 35.9001 44.6549 35.5401C44.1509 35.1801 43.8989 34.5921 43.8989 33.7761C43.8989 33.0081 44.1149 32.3121 44.5469 31.6881C45.0029 31.0881 45.5909 30.5241 46.3109 29.9961C47.0549 29.4921 47.8469 29.0241 48.6869 28.5921C49.5269 28.1601 50.3429 27.7521 51.1349 27.3681C51.3989 26.7201 51.6509 26.0241 51.8909 25.2801C52.1309 24.5361 52.3589 23.7321 52.5749 22.8681C51.7349 23.9241 50.8469 24.8001 49.9109 25.4961C48.9989 26.1921 48.0629 26.5401 47.1029 26.5401C46.1429 26.5401 45.3749 26.2041 44.7989 25.5321C44.2469 24.8601 43.9709 23.9721 43.9709 22.8681C43.9709 21.5961 44.2829 20.4081 44.9069 19.3041C45.5549 18.1761 46.3829 17.1801 47.3909 16.3161C48.3989 15.4281 49.4789 14.7441 50.6309 14.2641C51.7829 13.7601 52.8869 13.5081 53.9429 13.5081C54.7109 13.5081 55.2869 13.6521 55.6709 13.9401C56.0549 14.2041 56.2469 14.5161 56.2469 14.8761C56.2469 15.1641 56.1629 15.3921 55.9949 15.5601C55.8269 15.7281 55.7189 15.8241 55.6709 15.8481C55.4309 15.5841 55.1789 15.4161 54.9149 15.3441C54.6749 15.2481 54.3869 15.2001 54.0509 15.2001C53.1149 15.2001 52.2149 15.4641 51.3509 15.9921C50.4869 16.5201 49.7189 17.2041 49.0469 18.0441C48.3989 18.8601 47.8829 19.7121 47.4989 20.6001C47.1149 21.4881 46.9229 22.2921 46.9229 23.0121C46.9229 23.4921 47.0309 23.8641 47.2469 24.1281C47.4629 24.3681 47.7269 24.4881 48.0389 24.4881C48.7109 24.4881 49.5269 24.0561 50.4869 23.1921C51.4469 22.3041 52.3709 21.2361 53.2589 19.9881C53.3069 19.7961 53.3429 19.6281 53.3669 19.4841C53.4149 19.3161 53.4509 19.1601 53.4749 19.0161C53.7149 18.0561 54.0029 17.3481 54.3389 16.8921C54.6749 16.4361 55.1429 16.2081 55.7429 16.2081C55.8629 16.2081 56.0069 16.2201 56.1749 16.2441C56.3669 16.2681 56.5709 16.3041 56.7869 16.3521C56.7869 16.7841 56.6669 17.4921 56.4269 18.4761C56.1869 19.4601 55.8629 20.6121 55.4549 21.9321C55.0469 23.2281 54.5909 24.5601 54.0869 25.9281C54.8309 25.6161 55.5869 25.1841 56.3549 24.6321C57.1229 24.0561 57.8309 23.3721 58.4789 22.5801C59.1269 21.7641 59.6189 20.8641 59.9549 19.8801L60.6029 20.5281C60.2189 21.6321 59.6189 22.6401 58.8029 23.5521C58.0109 24.4641 57.1469 25.2561 56.2109 25.9281C55.2749 26.5761 54.4109 27.0801 53.6189 27.4401C52.9709 29.0241 52.2629 30.4641 51.4949 31.7601C50.7509 33.0801 49.9469 34.1241 49.0829 34.8921C48.2429 35.6841 47.3309 36.0801 46.3469 36.0801ZM46.2029 34.4241C46.6349 34.4241 47.2229 34.0161 47.9669 33.2001C48.7349 32.3841 49.5629 31.0041 50.4509 29.0601C49.5629 29.4921 48.7469 29.9361 48.0029 30.3921C47.2589 30.8481 46.6589 31.3281 46.2029 31.8321C45.7469 32.3361 45.5189 32.8641 45.5189 33.4161C45.5189 33.7281 45.5789 33.9681 45.6989 34.1361C45.8429 34.3281 46.0109 34.4241 46.2029 34.4241Z" fill="white"/>
</g>
<defs>
<clipPath id="clip0_1249_54">
<rect width="61" height="37" fill="white"/>
</clipPath>
</defs>
</svg>
